<?xml version="1.0" encoding="utf-8"?>
<!-- Generator: Adobe Illustrator 25.0.0, SVG Export Plug-In . SVG Version: 6.00 Build 0)  -->
<svg version="1.1" id="Layer_1" xmlns="http://www.w3.org/2000/svg" xmlns:xlink="http://www.w3.org/1999/xlink" x="0px" y="0px"
	 viewBox="0 0 179 182" style="enable-background:new 0 0 179 182;" xml:space="preserve">
<style type="text/css">
	.st0{fill:#1DA2D8;}
</style>
<circle class="st0" cx="89.32" cy="90.71" r="85.29"/>
<path d="M89.12,176c-11.8,0-22.88-2.24-33.26-6.72c-10.37-4.48-19.4-10.55-27.07-18.23s-13.75-16.7-18.23-27.07
	s-6.72-21.46-6.72-33.26s2.24-22.88,6.72-33.26s10.55-19.4,18.23-27.07s16.7-13.75,27.07-18.23s21.46-6.72,33.26-6.72
	S112,7.7,122.38,12.18s19.4,10.55,27.07,18.23s13.75,16.7,18.23,27.07c4.48,10.37,6.72,21.46,6.72,33.26s-2.24,22.88-6.72,33.26
	c-4.48,10.37-10.55,19.4-18.23,27.07c-7.67,7.67-16.7,13.75-27.07,18.23C112,173.76,100.92,176,89.12,176z M79.95,163v-17.48
	c-4.97,0-9.17-1.85-12.58-5.54c-3.41-3.7-5.12-8.03-5.12-13v-9.38l-43.7-43.7c-0.71,2.84-1.21,5.65-1.49,8.42s-0.43,5.58-0.43,8.42
	c0,18.48,6,34.61,18.01,48.39S61.76,160.86,79.95,163z M142.63,139.97c3.13-3.41,5.86-7.03,8.21-10.87s4.33-7.85,5.97-12.04
	c1.63-4.19,2.84-8.49,3.62-12.9c0.78-4.41,1.17-8.88,1.17-13.43c0-15.06-4.12-28.74-12.36-41.04
	c-8.24-12.29-19.26-21.28-33.04-26.97v3.84c0,4.97-1.71,9.31-5.12,13c-3.41,3.7-7.6,5.54-12.58,5.54H79.95v18.55
	c0,2.42-0.96,4.41-2.88,5.97c-1.92,1.56-4.09,2.34-6.5,2.34H52.88v18.76h55c2.42,0,4.41,0.92,5.97,2.77
	c1.56,1.85,2.34,3.98,2.34,6.4v27.07h9.17c4.12,0,7.75,1.21,10.87,3.62C139.36,133.01,141.49,136.14,142.63,139.97z"/>
</svg>
